<svg width="21" height="15" viewBox="0 0 21 15" fill="none" xmlns="http://www.w3.org/2000/svg">
<path d="M6.97636 1.45943C7.06776 1.24868 7.21878 1.06924 7.41083 0.943197C7.60289 0.817153 7.8276 0.75 8.05732 0.75C8.28704 0.75 8.51175 0.817153 8.70381 0.943197C8.89586 1.06924 9.04688 1.24868 9.13829 1.45943L12.165 7.43717L13.7216 3.91322C13.8101 3.73046 13.9483 3.57633 14.1204 3.46848C14.2924 3.36064 14.4914 3.30344 14.6944 3.30344C14.8975 3.30344 15.0965 3.36064 15.2685 3.46848C15.4406 3.57633 15.5788 3.73046 15.6673 3.91322L20.2074 13.75H0.75L6.97636 1.45943Z" stroke="black" stroke-width="1.5" stroke-linecap="round" stroke-linejoin="round"/>
</svg>
